<?xml version="1.0" encoding="UTF-8" standalone="no"?>
<!DOCTYPE svg PUBLIC "-//W3C//DTD SVG 1.0//EN"
 "http://www.w3.org/TR/2001/REC-SVG-20010904/DTD/svg10.dtd">
<!-- Generated by dot version 2.2.1 (Tue Jun 14 21:35:45 UTC 2005)
     For user: (mkimyaga) michael.kimyagarov,11269013   Title: G    Pages: 1 -->
<svg width="672pt" height="154pt"
 viewBox = "-1 -1 671 153"
 xmlns="http://www.w3.org/2000/svg">
<g id="graph0" class="graph" style="font-family:Times-Roman;font-size:14.00;">
<title>G</title>
<g id="node1" class="node"><title>trk</title>
<polygon style="fill:none;stroke:black;" points="123,143 273,143 273,71 123,71 123,143"/>
<text text-anchor="middle" x="151" y="94">lookup</text>
<polyline style="fill:none;stroke:black;" points="123,107 180,107 "/>
<text text-anchor="middle" x="151" y="130">dealloc</text>
<polyline style="fill:none;stroke:black;" points="180,143 180,71 "/>
<text text-anchor="middle" x="196" y="112">trk</text>
<polyline style="fill:none;stroke:black;" points="213,143 213,71 "/>
<text text-anchor="middle" x="243" y="88">miss</text>
<polyline style="fill:none;stroke:black;" points="213,95 273,95 "/>
<text text-anchor="middle" x="243" y="112">genHits</text>
<polyline style="fill:none;stroke:black;" points="213,119 273,119 "/>
<text text-anchor="middle" x="243" y="136">update</text>
</g>
<g id="node2" class="node"><title>tlb</title>
<polygon style="fill:none;stroke:black;" points="309,101 439,101 439,53 309,53 309,101"/>
<text text-anchor="middle" x="337" y="70">lookup</text>
<polyline style="fill:none;stroke:black;" points="309,77 365,77 "/>
<text text-anchor="middle" x="337" y="94">update</text>
<polyline style="fill:none;stroke:black;" points="365,101 365,53 "/>
<text text-anchor="middle" x="381" y="82">tlb</text>
<polyline style="fill:none;stroke:black;" points="397,101 397,53 "/>
<text text-anchor="middle" x="418" y="70">hit</text>
<polyline style="fill:none;stroke:black;" points="397,77 439,77 "/>
<text text-anchor="middle" x="418" y="94">miss</text>
</g>
<g id="edge6" class="edge"><title>trk&#45;&gt;tlb</title>
<path style="fill:none;stroke:black;" d="M270,119C279,115 290,110 300,105"/>
<polygon style="fill:black;stroke:black;" points="298,102 309,101 301,108 298,102"/>
</g>
<g id="node3" class="node"><title>mrg</title>
<polygon style="fill:none;stroke:black;" points="475,137 565,137 565,89 475,89 475,137"/>
<text text-anchor="middle" x="488" y="106">i1</text>
<polyline style="fill:none;stroke:black;" points="475,113 502,113 "/>
<text text-anchor="middle" x="488" y="130">i0</text>
<polyline style="fill:none;stroke:black;" points="502,137 502,89 "/>
<text text-anchor="middle" x="521" y="118">mrg</text>
<polyline style="fill:none;stroke:black;" points="541,137 541,89 "/>
<text text-anchor="middle" x="553" y="118">o</text>
</g>
<g id="edge4" class="edge"><title>trk&#45;&gt;mrg</title>
<path style="fill:none;stroke:black;" d="M273,119C347,117 366,115 439,110 450,109 458,112 465,113"/>
<polygon style="fill:black;stroke:black;" points="465,109 475,113 465,116 465,109"/>
</g>
<g id="node6" class="node"><title>miss</title>
<polygon style="fill:none;stroke:black;" points="624,4 601,25 624,46 659,45 659,5 624,4"/>
<text text-anchor="middle" x="633" y="30">miss</text>
</g>
<g id="edge2" class="edge"><title>trk&#45;&gt;miss</title>
<path style="fill:none;stroke:black;" d="M273,71C291,62 291,51 309,44 407,9 532,14 595,20"/>
<polygon style="fill:black;stroke:black;" points="595,17 605,21 595,23 595,17"/>
</g>
<g id="edge10" class="edge"><title>tlb&#45;&gt;trk</title>
<path style="fill:none;stroke:black;" d="M397,89C352,89 247,89 190,89"/>
<polygon style="fill:black;stroke:black;" points="190,92 180,89 190,85 190,92"/>
</g>
<g id="edge8" class="edge"><title>tlb&#45;&gt;mrg</title>
<path style="fill:none;stroke:black;" d="M432,77C442,86 455,97 467,107"/>
<polygon style="fill:black;stroke:black;" points="469,104 475,113 465,110 469,104"/>
</g>
<g id="node7" class="node"><title>hit</title>
<polygon style="fill:none;stroke:black;" points="625,92 606,113 625,134 654,133 654,93 625,92"/>
<text text-anchor="middle" x="633" y="118">hit</text>
</g>
<g id="edge12" class="edge"><title>mrg&#45;&gt;hit</title>
<path style="fill:none;stroke:black;" d="M565,113C573,113 585,113 596,113"/>
<polygon style="fill:black;stroke:black;" points="596,109 606,113 596,116 596,109"/>
</g>
<g id="node4" class="node"><title>lookup</title>
<polygon style="fill:none;stroke:black;" points="58,64 86,43 58,22 13,23 13,63 58,64"/>
<text text-anchor="middle" x="46" y="48">lookup</text>
</g>
<g id="edge14" class="edge"><title>lookup&#45;&gt;tlb</title>
<path style="fill:none;stroke:black;" d="M83,46C138,51 242,58 299,62"/>
<polygon style="fill:black;stroke:black;" points="299,59 309,63 299,65 299,59"/>
</g>
<g id="node5" class="node"><title>update</title>
<polygon style="fill:none;stroke:black;" points="58,146 86,125 58,104 14,105 14,145 58,146"/>
<text text-anchor="middle" x="46" y="130">update</text>
</g>
<g id="edge16" class="edge"><title>update&#45;&gt;trk</title>
<path style="fill:none;stroke:black;" d="M86,125C95,125 104,125 113,125"/>
<polygon style="fill:black;stroke:black;" points="113,121 123,125 113,128 113,121"/>
</g>
</g>
</svg>
